<svg width="239" height="48" viewBox="0 0 239 48" fill="none" xmlns="http://www.w3.org/2000/svg">
<g clip-path="url(#clip0_2019_48)">
<path d="M144.959 21.4535C144.959 22.6753 144.959 23.8388 144.959 25.0787C139.355 25.0787 133.795 25.0787 128.208 25.0787C128.208 27.4155 128.208 29.6752 128.208 31.9773C134.256 31.9773 140.273 31.9773 146.331 31.9773C146.331 33.4386 146.331 34.8583 146.331 36.3061C138.747 36.3061 131.164 36.3061 123.558 36.3061C123.558 27.5089 123.558 18.7443 123.558 9.94434C131.155 9.94434 138.718 9.94434 146.326 9.94434C146.326 11.3629 146.326 12.7795 146.326 14.2484C140.297 14.2484 134.278 14.2484 128.219 14.2484C128.219 16.414 128.219 18.5281 128.219 20.6919C133.779 20.6919 139.327 20.6919 144.959 20.6919C144.959 20.959 144.959 21.1771 144.959 21.4535Z" fill="#14463A"></path>
<path d="M185.786 35.4523C180.732 33.2163 177.798 28.5168 177.936 22.9253C178.111 15.8132 182.621 10.7137 189.666 9.66886C193.26 9.13581 196.788 9.34362 200.119 10.903C204.801 13.0949 207.275 16.8915 207.652 22.0209C207.957 26.1744 206.816 29.8821 203.781 32.8503C201.408 35.172 198.467 36.2888 195.233 36.6678C192.009 37.0457 188.853 36.7391 185.786 35.4523ZM182.858 24.1646C183.31 28.0961 185.412 30.7036 189.143 31.9288C191.37 32.6601 193.661 32.6969 195.923 32.098C199.384 31.1818 201.76 29.0494 202.536 25.4741C203.338 21.7826 202.586 18.464 199.583 15.9349C197.929 14.5422 195.946 13.9414 193.811 13.809C191.928 13.6921 190.085 13.8635 188.322 14.5885C184.547 16.1416 182.546 19.6029 182.858 24.1646Z" fill="#14463A"></path>
<path d="M228.75 30.4628C228.315 29.8164 227.878 29.2219 227.506 28.5895C227.28 28.2074 227.025 28.0871 226.582 28.0918C224.083 28.1182 221.584 28.1045 219.017 28.1045C219.017 30.9271 219.017 33.5939 219.017 36.299C217.414 36.299 215.878 36.299 214.321 36.299C214.321 27.519 214.321 18.7658 214.321 9.9492C214.493 9.93576 214.667 9.91047 214.841 9.91043C218.75 9.90963 222.659 9.90431 226.568 9.91633C228.33 9.92174 230.052 10.1943 231.7 10.8424C234.862 12.0854 236.661 14.4221 236.948 17.8061C237.057 19.0889 236.952 20.4355 236.681 21.6955C236.196 23.9449 234.758 25.5233 232.716 26.5464C232.553 26.6285 232.386 26.7057 232.223 26.789C232.188 26.8069 232.162 26.8413 232.089 26.9054C234.231 30.0112 236.371 33.114 238.567 36.2984C238.319 36.3153 238.15 36.3364 237.982 36.3367C236.393 36.3393 234.805 36.3252 233.218 36.3476C232.827 36.3531 232.593 36.2408 232.374 35.9059C231.19 34.0936 229.978 32.2992 228.75 30.4628ZM232.105 18.2334C231.923 16.6689 231.197 15.4606 229.7 14.8947C228.897 14.5911 228.023 14.3534 227.173 14.3246C224.611 14.2378 222.046 14.2671 219.482 14.2546C219.328 14.2538 219.175 14.2829 219.042 14.2959C219.042 17.5021 219.042 20.6592 219.042 23.8557C220.409 23.8557 221.729 23.8839 223.048 23.8487C224.792 23.8023 226.546 23.8044 228.276 23.608C230.724 23.33 232.091 21.6864 232.14 19.2032C232.145 18.9174 232.126 18.631 232.105 18.2334Z" fill="#14463A"></path>
<path d="M90.7599 22.6508C89.5248 25.8042 87.0483 27.317 83.9597 27.9569C82.7356 28.2105 81.4637 28.3016 80.2104 28.3316C77.8297 28.3886 75.4469 28.3482 73.065 28.3483C72.8445 28.3483 72.624 28.3483 72.3458 28.3483C72.3458 31.0252 72.3458 33.6542 72.3458 36.3108C70.7668 36.3108 69.2478 36.3108 67.6955 36.3108C67.6955 27.5163 67.6955 18.7509 67.6955 9.94585C67.9026 9.93294 68.0801 9.91226 68.2576 9.91222C72.3702 9.9116 76.4824 9.91106 80.595 9.91546C82.1913 9.91719 83.7551 10.1448 85.2773 10.6355C89.8571 12.112 91.6463 15.7235 91.2998 20.035C91.2306 20.9001 90.9529 21.7484 90.7599 22.6508ZM75.7925 24.0001C77.4007 23.9999 79.0107 24.0415 80.6168 23.9828C81.4974 23.9507 82.3953 23.8368 83.2445 23.6067C85.256 23.0616 86.3425 21.6106 86.4565 19.4887C86.5794 17.2006 85.7019 15.5919 83.7871 14.8723C82.9481 14.5569 82.0236 14.3495 81.1309 14.3229C78.3643 14.2406 75.5946 14.268 72.8263 14.2558C72.6719 14.2551 72.517 14.2816 72.3564 14.296C72.3564 17.5417 72.3564 20.7441 72.3564 24.0001C73.4815 24.0001 74.576 24.0001 75.7925 24.0001Z" fill="#14463A"></path>
<path d="M170.578 17.4208C169.276 19.1735 168.001 20.8912 166.716 22.6223C170.089 27.1711 173.442 31.6942 176.849 36.2894C176.625 36.3109 176.478 36.3371 176.33 36.3373C174.803 36.3403 173.276 36.3223 171.75 36.3499C171.317 36.3577 171.053 36.2268 170.796 35.8714C168.359 32.4945 165.902 29.1317 163.45 25.7653C163.321 25.588 163.185 25.4155 163.016 25.1914C162.832 25.4346 162.684 25.6255 162.542 25.8206C160.114 29.1534 157.678 32.481 155.268 35.8274C154.981 36.2261 154.683 36.3585 154.211 36.3494C152.746 36.3214 151.28 36.3392 149.814 36.3392C149.617 36.3392 149.42 36.3392 149.111 36.3392C152.544 31.7072 155.907 27.171 159.276 22.6259C156.158 18.418 153.054 14.2274 149.887 9.95292C150.167 9.93353 150.339 9.91166 150.511 9.91135C152.017 9.90865 153.524 9.92479 155.03 9.89995C155.443 9.89316 155.689 10.0302 155.929 10.3652C158.109 13.399 160.307 16.4192 162.501 19.4429C162.655 19.6552 162.813 19.8644 163.013 20.1332C163.183 19.9077 163.316 19.7367 163.444 19.5607C165.653 16.4983 167.868 13.4387 170.066 10.3676C170.303 10.0363 170.545 9.89245 170.963 9.89902C172.632 9.92519 174.3 9.9098 176.139 9.9098C174.25 12.4616 172.428 14.9237 170.578 17.4208Z" fill="#14463A"></path>
<path d="M97.9933 18.9727C97.9933 15.9452 97.9933 12.979 97.9933 9.96057C99.5505 9.96057 101.082 9.96057 102.665 9.96057C102.665 17.2862 102.665 24.603 102.665 31.9824C107.998 31.9824 113.28 31.9824 118.588 31.9824C118.588 33.4494 118.588 34.8541 118.588 36.2985C111.736 36.2985 104.888 36.2985 97.9933 36.2985C97.9933 30.526 97.9933 24.7801 97.9933 18.9727Z" fill="#14463A"></path>
<path d="M38.9882 27.1543L31.3934 34.7491L38.9882 42.344L46.583 34.7491L38.9882 27.1543Z" fill="#14463A"></path>
<path d="M36.2893 24.457L28.6944 16.8621L21.0995 24.457L28.6944 32.0518L36.2893 24.457Z" fill="#14463A"></path>
<path d="M18.2673 6.0108L10.6725 13.6057L18.2673 21.2006L25.8622 13.6057L18.2673 6.0108Z" fill="#14463A"></path>
<path d="M43.7783 10.8773L36.1835 18.4722L49.5191 31.8079L57.1139 24.213L43.7783 10.8773Z" fill="#14463A"></path>
<path d="M43.7787 10.8773L36.5827 3.68134C32.1684 -0.732972 25.0123 -0.732972 20.5935 3.68134L18.2599 6.01491L25.8552 13.6102C27.3636 12.1018 29.8081 12.1018 31.3166 13.6102L36.1789 18.4726L43.7742 10.8773H43.7787Z" fill="#14463A"></path>
<path d="M7.73461 16.5533L0.139771 24.1482L13.4755 37.4839L21.0703 29.889L7.73461 16.5533Z" fill="#14463A"></path>
<path d="M13.4747 37.4803L20.6707 44.6762C25.085 49.0905 32.2411 49.0905 36.6598 44.6762L38.9934 42.3427L31.3982 34.7474C29.8898 36.2558 27.4452 36.2558 25.9368 34.7474L21.0744 29.885L13.4792 37.4803H13.4747Z" fill="#14463A"></path>
</g>
<defs>
<clipPath id="clip0_2019_48">
<rect width="239" height="48" fill="#14463A"></rect>
</clipPath>
</defs>
</svg>